<svg width="1322" height="312" viewBox="0 0 1322 312" fill="none" xmlns="http://www.w3.org/2000/svg">
<path d="M319.853 190.112C319.853 199.433 321.905 207.739 325.989 215.054L326.377 215.727C330.432 222.63 335.945 228.061 342.924 232.032C350.219 236.127 358.501 238.185 367.796 238.186C377.195 238.186 385.477 236.125 392.669 232.032C399.873 227.932 405.513 222.278 409.603 215.054C413.687 207.739 415.74 199.433 415.74 190.112V72.4824H500.706V197.294C500.706 220.799 495.094 241.193 483.831 258.435L483.83 258.434C472.678 275.558 457.11 288.792 437.159 298.141L437.156 298.143C417.205 307.391 394.076 312 367.796 312C341.319 312 318.09 307.391 298.138 298.143L298.134 298.141C278.183 288.792 262.615 275.558 251.463 258.434L251.459 258.428C240.398 241.187 234.887 220.795 234.887 197.294V0H319.853V190.112ZM774.679 190.112C774.679 199.433 776.731 207.739 780.815 215.054L781.203 215.727C785.258 222.628 790.768 228.058 797.745 232.029L798.432 232.407C805.56 236.253 813.616 238.186 822.623 238.186C832.022 238.185 840.303 236.125 847.495 232.032C854.699 227.933 860.339 222.278 864.429 215.054C868.513 207.739 870.566 199.433 870.566 190.112V0H1004.24C1027.05 0 1047.05 4.16165 1064.22 12.5186C1076.85 18.6659 1087.43 26.8125 1095.95 36.9561L1096.18 37.2354V171.466L1095.93 171.748C1088.09 180.711 1078.48 187.994 1067.11 193.604L1096.18 247.118V308.409H1037.07L983.411 207.271H955.177C953.79 226.618 948.293 243.681 938.657 258.433C927.505 275.557 911.937 288.792 891.986 298.141L891.982 298.143C872.031 307.391 848.903 312 822.623 312C796.146 312 772.917 307.391 752.964 298.143L752.96 298.141C733.009 288.792 717.441 275.558 706.289 258.434L706.285 258.428C695.224 241.187 689.713 220.795 689.713 197.294V0H774.679V190.112ZM372.652 310.946C371.046 310.982 369.427 311 367.796 311C369.427 311 371.046 310.982 372.652 310.946ZM231.533 69.0811H83.0293V119.787H199.036V188.868H83.0293V308.654H0V0H231.533V69.0811ZM685.585 69.0273L637.236 69.0283V308.412H553.464V69.0293H415.61V0.00195312L685.585 0V69.0273ZM1322 69.0273H1184.72V119.691H1310.66V188.719H1184.72V239.382H1321.4V308.409H1099.75V0H1322V69.0273ZM306.392 300.56C306.88 300.749 307.371 300.936 307.863 301.12C307.371 300.936 306.88 300.749 306.392 300.56ZM432.456 299.125C432.011 299.312 431.565 299.498 431.117 299.681C431.565 299.498 432.011 299.312 432.456 299.125ZM302.487 298.978C303.035 299.21 303.586 299.439 304.139 299.665C303.586 299.439 303.035 299.21 302.487 298.978ZM300.771 298.234C301.264 298.452 301.76 298.669 302.258 298.881C301.76 298.669 301.264 298.452 300.771 298.234ZM279.694 286.309H279.695H279.694ZM924.22 274.681H924.219H924.22ZM927.465 271.283H927.464H927.465ZM930.549 267.745H930.55H930.549ZM933.474 264.066C933.853 263.567 934.228 263.063 934.599 262.556C934.228 263.063 933.853 263.567 933.474 264.066ZM937.299 258.68C937.124 258.943 936.948 259.205 936.771 259.466C937.125 258.943 937.475 258.418 937.82 257.888L937.299 258.68ZM251.307 256.305C251.633 256.835 251.964 257.363 252.301 257.888L251.792 257.086C251.624 256.818 251.457 256.549 251.291 256.279L251.307 256.305ZM706.117 256.279C706.448 256.818 706.785 257.355 707.127 257.888L706.618 257.086C706.45 256.818 706.283 256.549 706.117 256.279ZM484.507 255.494C484.283 255.86 484.056 256.223 483.827 256.586C484.056 256.223 484.283 255.86 484.507 255.494ZM249.873 253.896C250.101 254.292 250.333 254.686 250.566 255.079C250.333 254.686 250.101 254.292 249.873 253.896ZM704.663 253.833C704.903 254.25 705.147 254.665 705.393 255.079C705.147 254.665 704.903 254.25 704.663 253.833ZM941.255 252.215H941.256H941.255ZM247.545 249.608C247.646 249.807 247.749 250.005 247.852 250.203C247.749 250.005 247.646 249.807 247.545 249.608ZM702.371 249.608C702.473 249.807 702.575 250.005 702.678 250.203C702.575 250.005 702.473 249.807 702.371 249.608ZM943.572 247.814H943.573H943.572ZM245.443 245.232C245.57 245.514 245.699 245.795 245.828 246.075C245.699 245.795 245.57 245.514 245.443 245.232ZM700.34 245.389C700.192 245.062 700.046 244.734 699.901 244.405C700.046 244.734 700.192 245.062 700.34 245.389ZM369.947 239.147C369.236 239.172 368.519 239.186 367.796 239.186C368.519 239.186 369.237 239.172 369.947 239.147ZM824.76 239.147C824.054 239.171 823.342 239.186 822.623 239.186C823.342 239.186 824.054 239.171 824.76 239.147ZM819.918 239.126C819.948 239.127 819.979 239.129 820.009 239.13C819.979 239.129 819.948 239.127 819.918 239.126ZM364.205 239.08C364.24 239.082 364.275 239.085 364.311 239.087C364.275 239.085 364.24 239.082 364.205 239.08ZM819.007 239.079C819.052 239.082 819.098 239.084 819.144 239.087C819.098 239.084 819.052 239.082 819.007 239.079ZM817.992 239.01C818.122 239.02 818.252 239.03 818.382 239.039C818.252 239.03 818.122 239.02 817.992 239.01ZM372.154 239.034C372.241 239.028 372.328 239.021 372.415 239.015C372.328 239.021 372.241 239.028 372.154 239.034ZM826.986 239.034C827.06 239.029 827.133 239.022 827.207 239.017C827.133 239.022 827.06 239.029 826.986 239.034ZM363.282 239.02C363.343 239.024 363.405 239.029 363.466 239.033C363.405 239.029 363.343 239.024 363.282 239.02ZM817.133 238.938C817.269 238.951 817.405 238.963 817.542 238.975C817.405 238.963 817.269 238.951 817.133 238.938ZM372.976 238.971C373.107 238.96 373.239 238.947 373.37 238.935C373.239 238.947 373.107 238.96 372.976 238.971ZM827.809 238.97C827.928 238.96 828.048 238.948 828.167 238.938C828.048 238.948 827.928 238.96 827.809 238.97ZM362.443 238.951C362.502 238.956 362.56 238.962 362.618 238.967C362.56 238.962 362.502 238.956 362.443 238.951ZM816.379 238.864C816.492 238.876 816.606 238.888 816.72 238.899C816.606 238.888 816.492 238.876 816.379 238.864ZM373.818 238.893C373.931 238.881 374.042 238.869 374.154 238.857C374.042 238.869 373.931 238.881 373.818 238.893ZM828.643 238.893C828.809 238.876 828.974 238.858 829.14 238.84C828.974 238.858 828.809 238.876 828.643 238.893ZM361.651 238.875C361.686 238.879 361.721 238.882 361.756 238.886C361.721 238.882 361.686 238.879 361.651 238.875ZM829.421 238.81C829.603 238.789 829.784 238.766 829.965 238.744C829.784 238.766 829.603 238.789 829.421 238.81ZM815.537 238.77C815.647 238.783 815.757 238.796 815.867 238.809C815.757 238.796 815.647 238.783 815.537 238.77ZM374.658 238.803C374.805 238.786 374.951 238.768 375.097 238.75C374.951 238.768 374.805 238.786 374.658 238.803ZM360.654 238.763C360.756 238.775 360.858 238.788 360.96 238.8C360.858 238.788 360.756 238.775 360.654 238.763ZM814.703 238.662C814.831 238.679 814.958 238.696 815.086 238.713C814.958 238.696 814.831 238.679 814.703 238.662ZM375.442 238.707C375.59 238.688 375.737 238.668 375.884 238.647C375.737 238.668 375.59 238.688 375.442 238.707ZM830.279 238.705C830.421 238.687 830.561 238.668 830.702 238.648C830.561 238.668 830.421 238.687 830.279 238.705ZM359.888 238.664C359.972 238.676 360.057 238.687 360.142 238.698C360.057 238.687 359.972 238.676 359.888 238.664ZM813.983 238.56C814.056 238.57 814.129 238.581 814.202 238.592C814.129 238.581 814.056 238.57 813.983 238.56ZM376.324 238.585C376.429 238.57 376.534 238.554 376.639 238.538C376.534 238.554 376.429 238.57 376.324 238.585ZM831.153 238.585C831.252 238.571 831.35 238.556 831.448 238.541C831.35 238.556 831.252 238.571 831.153 238.585ZM359.12 238.554C359.168 238.561 359.216 238.569 359.264 238.576C359.216 238.569 359.168 238.561 359.12 238.554ZM377.146 238.459C377.242 238.443 377.338 238.427 377.434 238.411C377.338 238.427 377.242 238.443 377.146 238.459ZM831.989 238.456C832.07 238.443 832.151 238.43 832.232 238.416C832.151 238.43 832.07 238.443 831.989 238.456ZM358.201 238.407C358.297 238.423 358.393 238.439 358.489 238.455C358.393 238.439 358.297 238.423 358.201 238.407ZM813.189 238.436C813.225 238.441 813.26 238.446 813.296 238.452C813.26 238.446 813.225 238.441 813.189 238.436ZM812.313 238.283C812.41 238.301 812.507 238.318 812.604 238.335C812.507 238.318 812.41 238.301 812.313 238.283ZM357.286 238.245C357.434 238.273 357.581 238.3 357.729 238.326C357.581 238.3 357.434 238.273 357.286 238.245ZM377.952 238.322C378.074 238.301 378.196 238.278 378.317 238.256C378.196 238.278 378.074 238.301 377.952 238.322ZM832.791 238.32C832.905 238.3 833.02 238.279 833.134 238.258C833.02 238.279 832.905 238.3 832.791 238.32ZM811.512 238.131C811.63 238.154 811.749 238.176 811.868 238.199C811.749 238.176 811.63 238.154 811.512 238.131ZM356.548 238.103C356.682 238.13 356.817 238.157 356.952 238.183C356.817 238.157 356.682 238.13 356.548 238.103ZM378.712 238.182C378.846 238.156 378.98 238.129 379.113 238.103C378.98 238.129 378.846 238.156 378.712 238.182ZM833.538 238.182C833.672 238.156 833.806 238.129 833.939 238.103C833.806 238.129 833.672 238.156 833.538 238.182ZM810.748 237.973C810.838 237.992 810.928 238.01 811.019 238.029C810.928 238.01 810.838 237.992 810.748 237.973ZM379.554 238.013C379.665 237.989 379.776 237.965 379.888 237.94C379.776 237.965 379.665 237.989 379.554 238.013ZM834.387 238.011C834.489 237.989 834.592 237.968 834.694 237.945C834.592 237.968 834.489 237.989 834.387 238.011ZM355.771 237.939C355.876 237.962 355.98 237.985 356.084 238.007C355.98 237.985 355.876 237.962 355.771 237.939ZM809.95 237.795C810.06 237.82 810.169 237.844 810.279 237.869C810.169 237.844 810.06 237.82 809.95 237.795ZM380.312 237.847C380.447 237.816 380.582 237.786 380.717 237.754C380.582 237.786 380.447 237.816 380.312 237.847ZM354.957 237.755C355.085 237.785 355.213 237.815 355.341 237.844C355.213 237.815 355.085 237.785 354.957 237.755ZM835.162 237.842C835.281 237.815 835.399 237.787 835.517 237.76C835.399 237.787 835.281 237.815 835.162 237.842ZM808.75 237.501C809.012 237.568 809.275 237.634 809.539 237.697C809.275 237.634 809.012 237.568 808.75 237.501ZM835.936 237.659C836.072 237.626 836.207 237.593 836.343 237.559C836.207 237.593 836.072 237.626 835.936 237.659ZM381.121 237.656C381.226 237.631 381.33 237.605 381.435 237.579C381.33 237.605 381.226 237.631 381.121 237.656ZM354.175 237.564C354.294 237.595 354.414 237.625 354.534 237.654C354.414 237.625 354.294 237.595 354.175 237.564ZM836.644 237.481C836.806 237.439 836.968 237.397 837.129 237.354C836.968 237.397 836.806 237.439 836.644 237.481ZM353.356 237.352C353.503 237.391 353.65 237.429 353.797 237.468C353.65 237.429 353.503 237.391 353.356 237.352ZM381.921 237.455C382.035 237.425 382.149 237.395 382.263 237.364C382.149 237.395 382.035 237.425 381.921 237.455ZM808.04 237.312C808.173 237.349 808.307 237.386 808.44 237.421C808.307 237.386 808.173 237.349 808.04 237.312ZM382.641 237.261C382.77 237.225 382.898 237.188 383.026 237.151C382.898 237.188 382.77 237.225 382.641 237.261ZM837.466 237.261C837.589 237.227 837.712 237.192 837.834 237.157C837.712 237.192 837.589 237.227 837.466 237.261ZM352.655 237.157C352.773 237.191 352.891 237.223 353.009 237.256C352.891 237.223 352.773 237.191 352.655 237.157ZM807.379 237.127C807.478 237.156 807.577 237.185 807.677 237.213C807.577 237.185 807.478 237.156 807.379 237.127ZM383.454 237.026C383.558 236.996 383.662 236.965 383.766 236.934C383.662 236.965 383.558 236.996 383.454 237.026ZM838.324 237.014C838.406 236.989 838.488 236.965 838.569 236.94C838.488 236.965 838.406 236.989 838.324 237.014ZM351.881 236.928C351.967 236.954 352.053 236.98 352.139 237.006C352.053 236.98 351.967 236.954 351.881 236.928ZM806.69 236.923C806.754 236.942 806.818 236.962 806.882 236.981C806.818 236.962 806.754 236.942 806.69 236.923ZM351.114 236.688C351.229 236.725 351.343 236.761 351.458 236.797C351.343 236.761 351.229 236.725 351.114 236.688ZM839.057 236.789C839.16 236.756 839.263 236.724 839.366 236.69C839.263 236.724 839.16 236.756 839.057 236.789ZM384.247 236.784C384.339 236.755 384.431 236.726 384.522 236.696C384.431 236.726 384.339 236.755 384.247 236.784ZM805.804 236.644C805.918 236.681 806.031 236.718 806.146 236.754C806.031 236.718 805.918 236.681 805.804 236.644ZM839.791 236.55C839.9 236.514 840.009 236.477 840.117 236.44C840.009 236.477 839.9 236.514 839.791 236.55ZM350.396 236.45C350.475 236.477 350.555 236.504 350.635 236.53C350.555 236.504 350.475 236.477 350.396 236.45ZM385.056 236.521C385.115 236.501 385.174 236.481 385.232 236.461C385.174 236.481 385.115 236.501 385.056 236.521ZM805.07 236.398C805.185 236.438 805.3 236.477 805.415 236.516C805.3 236.477 805.185 236.438 805.07 236.398ZM349.604 236.174C349.705 236.21 349.805 236.246 349.906 236.281C349.805 236.246 349.705 236.21 349.604 236.174ZM840.575 236.281C840.662 236.251 840.748 236.22 840.834 236.189C840.748 236.22 840.662 236.251 840.575 236.281ZM385.806 236.262C385.874 236.237 385.943 236.213 386.012 236.188C385.943 236.213 385.874 236.237 385.806 236.262ZM804.376 236.154C804.473 236.189 804.57 236.224 804.667 236.258C804.57 236.224 804.473 236.189 804.376 236.154ZM348.896 235.913C348.979 235.945 349.063 235.976 349.146 236.007C349.063 235.976 348.979 235.945 348.896 235.913ZM841.372 235.992C841.439 235.967 841.506 235.942 841.573 235.917C841.506 235.942 841.439 235.967 841.372 235.992ZM803.62 235.874C803.716 235.91 803.812 235.948 803.908 235.983C803.812 235.948 803.716 235.91 803.62 235.874ZM386.575 235.981C386.626 235.962 386.677 235.944 386.728 235.925C386.677 235.944 386.626 235.962 386.575 235.981ZM348.115 235.611C348.218 235.652 348.32 235.691 348.423 235.731C348.32 235.691 348.218 235.652 348.115 235.611ZM802.854 235.576C802.979 235.626 803.105 235.675 803.231 235.725C803.105 235.675 802.979 235.626 802.854 235.576ZM842.086 235.719C842.164 235.688 842.243 235.657 842.321 235.626C842.243 235.657 842.164 235.688 842.086 235.719ZM387.276 235.712C387.349 235.683 387.422 235.655 387.495 235.626C387.422 235.655 387.349 235.683 387.276 235.712ZM347.395 235.318C347.502 235.363 347.611 235.407 347.719 235.451C347.611 235.407 347.502 235.363 347.395 235.318ZM387.965 235.436C388.053 235.399 388.142 235.363 388.23 235.326C388.142 235.363 388.053 235.399 387.965 235.436ZM842.791 235.436C842.88 235.399 842.968 235.363 843.057 235.326C842.968 235.363 842.88 235.399 842.791 235.436ZM802.179 235.301C802.277 235.342 802.377 235.382 802.476 235.423C802.377 235.382 802.277 235.342 802.179 235.301ZM346.643 234.997C346.773 235.054 346.905 235.11 347.036 235.166C346.905 235.11 346.773 235.054 346.643 234.997ZM801.422 234.977C801.542 235.029 801.663 235.082 801.784 235.134C801.663 235.082 801.542 235.029 801.422 234.977ZM800.797 234.697C800.815 234.705 800.832 234.714 800.85 234.722C800.832 234.714 800.815 234.705 800.797 234.697ZM800.011 234.331C800.096 234.372 800.183 234.412 800.269 234.452C800.183 234.412 800.096 234.372 800.011 234.331ZM390.241 234.426C390.286 234.405 390.33 234.384 390.374 234.362C390.33 234.384 390.286 234.405 390.241 234.426ZM845.067 234.426C845.112 234.405 845.156 234.384 845.2 234.362C845.156 234.384 845.112 234.405 845.067 234.426ZM345.249 234.362C345.287 234.381 345.326 234.398 345.364 234.416C345.326 234.398 345.287 234.381 345.249 234.362ZM799.302 233.984C799.44 234.053 799.579 234.121 799.718 234.188C799.579 234.121 799.44 234.053 799.302 233.984ZM344.537 234.016C344.573 234.034 344.61 234.051 344.646 234.069C344.61 234.051 344.573 234.034 344.537 234.016ZM390.973 234.069C391.009 234.051 391.045 234.034 391.081 234.016C391.045 234.034 391.009 234.051 390.973 234.069ZM845.799 234.069C845.835 234.051 845.871 234.034 845.907 234.016C845.871 234.034 845.835 234.051 845.799 234.069ZM343.131 233.288C343.178 233.313 343.225 233.337 343.271 233.362C343.218 233.333 343.163 233.305 343.109 233.276L343.131 233.288ZM238.375 223.128C238.43 223.4 238.488 223.671 238.545 223.942C238.488 223.671 238.43 223.4 238.375 223.128ZM693.249 223.36C693.168 222.967 693.089 222.573 693.012 222.178C693.089 222.573 693.168 222.967 693.249 223.36ZM785.317 223.177C785.385 223.255 785.455 223.332 785.523 223.409C785.286 223.139 785.05 222.868 784.818 222.592L785.317 223.177ZM329.022 221.395C329.268 221.708 329.518 222.018 329.771 222.324C329.518 222.018 329.268 221.708 329.022 221.395ZM692.471 219.197C692.518 219.481 692.568 219.764 692.617 220.046C692.568 219.764 692.518 219.481 692.471 219.197ZM498.535 215.154C498.614 214.577 498.689 213.998 498.76 213.416C498.689 213.998 498.614 214.577 498.535 215.154ZM324.743 214.86C324.866 215.09 324.992 215.318 325.119 215.546C324.992 215.318 324.866 215.09 324.743 214.86ZM865.674 214.86L865.685 214.842C865.76 214.701 865.833 214.56 865.907 214.419C865.83 214.566 865.753 214.714 865.674 214.86ZM323.81 213.024C323.877 213.164 323.944 213.304 324.013 213.442C323.944 213.304 323.877 213.164 323.81 213.024ZM411.914 212.749C411.989 212.591 412.063 212.432 412.137 212.272C412.063 212.432 411.989 212.591 411.914 212.749ZM778.636 213.024C778.703 213.164 778.77 213.304 778.839 213.442C778.77 213.304 778.703 213.164 778.636 213.024ZM866.74 212.749C866.815 212.591 866.889 212.432 866.963 212.272C866.889 212.432 866.815 212.591 866.74 212.749ZM323.13 211.552C323.201 211.714 323.272 211.877 323.346 212.038C323.272 211.877 323.201 211.714 323.13 211.552ZM412.245 212.038C412.319 211.877 412.39 211.714 412.462 211.552C412.39 211.714 412.319 211.877 412.245 212.038ZM777.956 211.552C778.028 211.714 778.099 211.877 778.172 212.038C778.099 211.877 778.028 211.714 777.956 211.552ZM867.071 212.038C867.145 211.877 867.216 211.714 867.288 211.552C867.216 211.714 867.145 211.877 867.071 212.038ZM322.82 210.834C322.885 210.987 322.949 211.139 323.015 211.291C322.949 211.139 322.885 210.987 322.82 210.834ZM412.576 211.291C412.617 211.197 412.657 211.102 412.697 211.007C412.657 211.102 412.617 211.197 412.576 211.291ZM777.72 211.007C777.76 211.102 777.8 211.197 777.841 211.291C777.8 211.197 777.76 211.102 777.72 211.007ZM867.402 211.291C867.468 211.139 867.533 210.987 867.598 210.834C867.533 210.987 867.468 211.139 867.402 211.291ZM499.266 208.389C499.195 209.266 499.116 210.139 499.028 211.007C499.117 210.139 499.195 209.266 499.266 208.389ZM322.515 210.091C322.584 210.264 322.653 210.437 322.725 210.608C322.653 210.437 322.584 210.264 322.515 210.091ZM867.692 210.608C867.764 210.436 867.834 210.264 867.903 210.091C867.834 210.264 867.764 210.436 867.692 210.608ZM412.89 210.551C412.921 210.474 412.952 210.397 412.983 210.32C412.952 210.397 412.921 210.474 412.89 210.551ZM777.434 210.32C777.465 210.397 777.496 210.474 777.527 210.551C777.496 210.474 777.465 210.397 777.434 210.32ZM691.133 208.241C691.18 208.838 691.23 209.433 691.284 210.025C691.23 209.433 691.18 208.838 691.133 208.241ZM322.236 209.382C322.299 209.547 322.363 209.711 322.428 209.875C322.363 209.711 322.299 209.547 322.236 209.382ZM867.989 209.875C868.054 209.711 868.118 209.547 868.182 209.382C868.118 209.547 868.054 209.711 867.989 209.875ZM413.19 209.806C413.219 209.732 413.248 209.659 413.276 209.585C413.248 209.659 413.219 209.732 413.19 209.806ZM777.141 209.585C777.169 209.659 777.198 209.732 777.227 209.806C777.198 209.732 777.169 209.659 777.141 209.585ZM321.962 208.646C322.014 208.79 322.066 208.934 322.12 209.077C322.066 208.934 322.014 208.79 321.962 208.646ZM413.472 209.077C413.525 208.934 413.577 208.79 413.63 208.646C413.577 208.79 413.525 208.934 413.472 209.077ZM776.788 208.646C776.84 208.79 776.893 208.934 776.946 209.077C776.893 208.934 776.84 208.79 776.788 208.646ZM868.298 209.077C868.331 208.99 868.362 208.902 868.395 208.814C868.362 208.902 868.331 208.99 868.298 209.077ZM321.682 207.856C321.744 208.037 321.807 208.217 321.871 208.396C321.807 208.217 321.744 208.037 321.682 207.856ZM413.72 208.396C413.784 208.217 413.848 208.037 413.91 207.856C413.848 208.037 413.784 208.217 413.72 208.396ZM776.534 207.935C776.588 208.089 776.642 208.243 776.697 208.396C776.642 208.243 776.588 208.089 776.534 207.935ZM868.574 208.321C868.612 208.216 868.649 208.11 868.686 208.004C868.649 208.11 868.612 208.216 868.574 208.321ZM321.446 207.158C321.504 207.334 321.562 207.51 321.622 207.685C321.562 207.51 321.504 207.334 321.446 207.158ZM413.969 207.685C414.028 207.509 414.088 207.334 414.146 207.158C414.088 207.334 414.028 207.509 413.969 207.685ZM776.31 207.271C776.348 207.386 776.386 207.501 776.425 207.615C776.386 207.501 776.348 207.386 776.31 207.271ZM868.819 207.614C868.871 207.463 868.922 207.311 868.972 207.158C868.922 207.311 868.871 207.463 868.819 207.614ZM321.204 206.401C321.248 206.542 321.292 206.682 321.337 206.822C321.292 206.682 321.248 206.542 321.204 206.401ZM414.255 206.822C414.3 206.682 414.343 206.542 414.387 206.401C414.343 206.542 414.3 206.682 414.255 206.822ZM869.081 206.822C869.116 206.714 869.15 206.605 869.184 206.496C869.15 206.605 869.116 206.714 869.081 206.822ZM776.063 206.505C776.095 206.606 776.126 206.706 776.158 206.807C776.126 206.706 776.095 206.606 776.063 206.505ZM320.978 205.646C321.026 205.811 321.073 205.974 321.123 206.138C321.073 205.974 321.026 205.811 320.978 205.646ZM414.468 206.138C414.517 205.974 414.566 205.811 414.614 205.646C414.566 205.811 414.517 205.974 414.468 206.138ZM775.804 205.646C775.849 205.802 775.895 205.958 775.942 206.113C775.895 205.958 775.849 205.802 775.804 205.646ZM869.317 206.06C869.35 205.952 869.382 205.844 869.414 205.735C869.382 205.844 869.35 205.952 869.317 206.06ZM320.764 204.894C320.804 205.041 320.845 205.188 320.887 205.334C320.845 205.188 320.804 205.041 320.764 204.894ZM414.704 205.334C414.746 205.187 414.788 205.041 414.828 204.894C414.788 205.041 414.746 205.187 414.704 205.334ZM775.59 204.894C775.63 205.041 775.671 205.188 775.713 205.334C775.671 205.188 775.63 205.041 775.59 204.894ZM869.53 205.334C869.572 205.187 869.614 205.041 869.654 204.894C869.614 205.041 869.572 205.187 869.53 205.334ZM320.571 204.176C320.603 204.297 320.635 204.417 320.667 204.538C320.635 204.418 320.603 204.297 320.571 204.176ZM414.924 204.538C414.956 204.417 414.988 204.297 415.02 204.176C414.988 204.297 414.956 204.417 414.924 204.538ZM775.397 204.176C775.429 204.297 775.461 204.418 775.493 204.538C775.461 204.418 775.429 204.297 775.397 204.176ZM869.76 204.505C869.782 204.421 869.803 204.338 869.825 204.254C869.803 204.338 869.782 204.421 869.76 204.505ZM320.383 203.428C320.41 203.542 320.439 203.655 320.468 203.769C320.439 203.655 320.41 203.542 320.383 203.428ZM415.123 203.769C415.151 203.655 415.18 203.542 415.208 203.428C415.18 203.542 415.151 203.655 415.123 203.769ZM775.209 203.428C775.237 203.542 775.266 203.655 775.294 203.769C775.266 203.655 775.237 203.542 775.209 203.428ZM690.729 199.53C690.751 200.952 690.794 202.361 690.856 203.759C690.794 202.361 690.751 200.952 690.729 199.53ZM869.97 203.689C869.99 203.607 870.011 203.524 870.031 203.44C870.011 203.524 869.99 203.607 869.97 203.689ZM870.14 202.986C870.168 202.863 870.197 202.74 870.225 202.617C870.197 202.74 870.168 202.863 870.14 202.986ZM320.194 202.623C320.218 202.726 320.242 202.829 320.266 202.932C320.242 202.829 320.218 202.726 320.194 202.623ZM415.325 202.932C415.349 202.829 415.373 202.726 415.396 202.623C415.373 202.726 415.349 202.829 415.325 202.932ZM775.021 202.623C775.044 202.726 775.068 202.829 775.092 202.932C775.068 202.829 775.044 202.726 775.021 202.623ZM320.009 201.765C320.04 201.915 320.072 202.066 320.104 202.216C320.072 202.066 320.04 201.915 320.009 201.765ZM415.486 202.216C415.519 202.066 415.552 201.915 415.583 201.765C415.552 201.915 415.519 202.066 415.486 202.216ZM774.835 201.765C774.866 201.915 774.898 202.066 774.931 202.216C774.898 202.066 774.866 201.915 774.835 201.765ZM870.337 202.104C870.353 202.031 870.369 201.957 870.385 201.883C870.369 201.957 870.353 202.031 870.337 202.104ZM499.689 199.473C499.677 200.311 499.656 201.145 499.629 201.976C499.668 200.787 499.693 199.591 499.702 198.386L499.689 199.473ZM319.85 200.971C319.878 201.119 319.908 201.268 319.938 201.416C319.908 201.268 319.878 201.119 319.85 200.971ZM415.653 201.416C415.683 201.268 415.714 201.12 415.742 200.971C415.714 201.12 415.683 201.268 415.653 201.416ZM774.676 200.971C774.704 201.119 774.734 201.268 774.764 201.416C774.734 201.268 774.704 201.119 774.676 200.971ZM870.488 201.376C870.512 201.255 870.537 201.135 870.561 201.014C870.537 201.135 870.512 201.255 870.488 201.376ZM319.702 200.171C319.726 200.307 319.751 200.443 319.776 200.578C319.751 200.443 319.726 200.307 319.702 200.171ZM415.815 200.578C415.84 200.443 415.866 200.307 415.89 200.171C415.866 200.307 415.84 200.443 415.815 200.578ZM774.528 200.171C774.552 200.307 774.578 200.443 774.603 200.578C774.578 200.443 774.552 200.307 774.528 200.171ZM870.654 200.51C870.668 200.436 870.682 200.361 870.695 200.287C870.682 200.361 870.668 200.436 870.654 200.51ZM415.948 199.821C415.975 199.662 416.002 199.503 416.027 199.344C416.002 199.503 415.975 199.662 415.948 199.821ZM774.393 199.364C774.417 199.517 774.443 199.669 774.469 199.821C774.443 199.669 774.417 199.517 774.393 199.364ZM319.578 199.438C319.595 199.544 319.614 199.651 319.632 199.758C319.614 199.651 319.595 199.544 319.578 199.438ZM870.803 199.658C870.814 199.588 870.827 199.518 870.838 199.448C870.827 199.518 870.814 199.588 870.803 199.658ZM416.061 199.134C416.093 198.927 416.124 198.72 416.154 198.513C416.124 198.72 416.093 198.927 416.061 199.134ZM774.276 198.599C774.296 198.736 774.317 198.874 774.338 199.011C774.317 198.874 774.296 198.736 774.276 198.599ZM870.917 198.938C870.934 198.825 870.951 198.712 870.968 198.599C870.951 198.712 870.934 198.825 870.917 198.938ZM319.443 198.554C319.459 198.663 319.476 198.771 319.492 198.88C319.476 198.771 319.459 198.663 319.443 198.554ZM416.526 195.239C416.484 195.736 416.436 196.23 416.382 196.722C416.436 196.23 416.484 195.736 416.526 195.239ZM319.331 197.736C319.35 197.881 319.37 198.025 319.39 198.169C319.37 198.025 319.35 197.881 319.331 197.736ZM871.037 198.104C871.052 197.997 871.067 197.889 871.081 197.781C871.067 197.889 871.052 197.997 871.037 198.104ZM871.144 197.281C871.156 197.174 871.169 197.067 871.182 196.96C871.169 197.067 871.156 197.174 871.144 197.281ZM319.237 196.973C319.247 197.054 319.257 197.135 319.267 197.216C319.257 197.135 319.247 197.054 319.237 196.973ZM774.063 196.973C774.071 197.038 774.079 197.104 774.087 197.17C774.079 197.104 774.071 197.038 774.063 196.973ZM319.143 196.084C319.156 196.219 319.17 196.353 319.185 196.487C319.17 196.353 319.156 196.219 319.143 196.084ZM773.969 196.084C773.982 196.219 773.996 196.353 774.011 196.487C773.996 196.353 773.982 196.219 773.969 196.084ZM871.233 196.487C871.248 196.353 871.263 196.219 871.276 196.084C871.263 196.219 871.248 196.353 871.233 196.487ZM318.881 192.002C318.879 191.951 318.877 191.9 318.876 191.85L318.877 191.877C318.878 191.919 318.88 191.96 318.881 192.002ZM416.716 191.85C416.705 192.259 416.688 192.667 416.669 193.073C416.688 192.676 416.705 192.278 416.716 191.877V191.85ZM871.513 192.701C871.524 192.427 871.534 192.153 871.542 191.877L871.543 191.85C871.535 192.134 871.524 192.418 871.513 192.701ZM1067.9 192.091C1067.54 192.273 1067.18 192.454 1066.82 192.633L1067.9 192.091C1068.26 191.909 1068.61 191.725 1068.97 191.539L1067.9 192.091ZM956.299 140.638H984.545C994.218 140.638 1002.41 139.448 1009.14 137.102C1015.92 134.669 1021.06 130.849 1024.61 125.662L1024.61 125.652C1028.24 120.481 1030.1 113.668 1030.1 105.131C1030.1 96.493 1028.24 89.5779 1024.61 84.3047L1024.6 84.2959L1024.6 84.2871C1021.05 78.8985 1015.9 74.9331 1009.12 72.4053L1009.11 72.4023L1009.1 72.3994C1002.38 69.7642 994.207 68.4287 984.545 68.4287H956.299V140.638ZM1001.13 140.234C1000.39 140.375 999.632 140.505 998.861 140.624L999.628 140.501C1000.39 140.375 1001.14 140.238 1001.88 140.091L1001.13 140.234ZM1006.14 139.08C1005.46 139.269 1004.76 139.449 1004.05 139.617C1004.52 139.505 1004.99 139.388 1005.45 139.267C1005.68 139.206 1005.91 139.144 1006.14 139.081V139.08ZM1010.72 137.572C1010.82 137.533 1010.92 137.494 1011.02 137.454C1010.92 137.494 1010.82 137.533 1010.72 137.572ZM1011.35 137.316C1011.47 137.27 1011.58 137.223 1011.69 137.176C1011.58 137.223 1011.47 137.27 1011.35 137.316ZM1011.94 137.066C1012.09 137.001 1012.24 136.936 1012.39 136.869C1012.24 136.936 1012.09 137.001 1011.94 137.066ZM1012.53 136.805C1012.7 136.73 1012.86 136.653 1013.03 136.576C1012.86 136.653 1012.7 136.73 1012.53 136.805ZM1013.11 136.537C1013.25 136.471 1013.39 136.403 1013.52 136.336C1013.39 136.403 1013.25 136.471 1013.11 136.537ZM1013.72 136.241C1013.83 136.187 1013.93 136.133 1014.04 136.078C1013.93 136.133 1013.83 136.187 1013.72 136.241ZM1014.3 135.943C1014.4 135.894 1014.49 135.842 1014.59 135.792C1014.49 135.842 1014.4 135.894 1014.3 135.943ZM1014.86 135.645C1014.95 135.596 1015.04 135.548 1015.13 135.499C1015.04 135.548 1014.95 135.596 1014.86 135.645ZM1015.43 135.329C1015.54 135.266 1015.65 135.202 1015.76 135.139C1015.65 135.202 1015.54 135.266 1015.43 135.329ZM1015.92 135.047C1016.04 134.978 1016.15 134.907 1016.27 134.837C1016.15 134.907 1016.04 134.978 1015.92 135.047ZM1016.49 134.699C1016.59 134.639 1016.69 134.578 1016.78 134.517C1016.69 134.578 1016.59 134.639 1016.49 134.699ZM1017.02 134.366C1017.11 134.308 1017.2 134.249 1017.29 134.19C1017.2 134.249 1017.11 134.308 1017.02 134.366ZM1017.54 134.021C1017.64 133.957 1017.73 133.892 1017.83 133.827C1017.73 133.892 1017.64 133.957 1017.54 134.021ZM1018.01 133.698C1018.13 133.616 1018.25 133.534 1018.36 133.451C1018.25 133.534 1018.13 133.616 1018.01 133.698ZM1018.54 133.319C1018.62 133.263 1018.7 133.207 1018.77 133.149C1018.7 133.207 1018.62 133.263 1018.54 133.319ZM1019.06 132.934C1019.13 132.878 1019.2 132.821 1019.28 132.765C1019.2 132.821 1019.13 132.878 1019.06 132.934ZM1019.52 132.574C1019.6 132.511 1019.68 132.448 1019.76 132.384C1019.68 132.448 1019.6 132.511 1019.52 132.574ZM1019.99 132.194C1020.07 132.125 1020.15 132.055 1020.24 131.984C1020.15 132.055 1020.07 132.125 1019.99 132.194ZM1020.45 131.804C1020.52 131.744 1020.59 131.685 1020.66 131.624C1020.59 131.685 1020.52 131.744 1020.45 131.804ZM1020.92 131.385C1020.99 131.319 1021.07 131.254 1021.14 131.188C1021.07 131.254 1020.99 131.319 1020.92 131.385ZM1021.29 131.049C1021.39 130.951 1021.5 130.853 1021.6 130.754C1021.5 130.853 1021.39 130.951 1021.29 131.049ZM1022.18 130.177C1022.26 130.098 1022.34 130.019 1022.42 129.939C1022.34 130.019 1022.26 130.098 1022.18 130.177ZM1022.63 129.714C1022.69 129.645 1022.76 129.575 1022.82 129.506C1022.76 129.575 1022.69 129.645 1022.63 129.714ZM1023.06 129.243C1023.11 129.188 1023.16 129.134 1023.21 129.078C1023.16 129.134 1023.11 129.188 1023.06 129.243ZM1023.44 128.807C1023.5 128.743 1023.56 128.68 1023.61 128.616C1023.56 128.68 1023.5 128.743 1023.44 128.807ZM1025.77 125.732C1025.81 125.675 1025.84 125.616 1025.88 125.558C1025.84 125.616 1025.81 125.675 1025.77 125.732ZM1027.34 123.052C1027.37 123.005 1027.39 122.957 1027.41 122.909C1027.39 122.957 1027.37 123.005 1027.34 123.052ZM1027.63 122.481C1027.65 122.443 1027.66 122.403 1027.68 122.364C1027.66 122.403 1027.65 122.443 1027.63 122.481ZM1027.89 121.923C1027.92 121.866 1027.94 121.809 1027.97 121.752C1027.94 121.809 1027.92 121.866 1027.89 121.923ZM1028.15 121.331C1028.17 121.288 1028.19 121.244 1028.21 121.2C1028.19 121.244 1028.17 121.288 1028.15 121.331ZM1028.4 120.733C1028.42 120.69 1028.44 120.646 1028.46 120.602C1028.44 120.646 1028.42 120.69 1028.4 120.733ZM1028.63 120.164C1028.66 120.088 1028.69 120.011 1028.72 119.935C1028.69 120.011 1028.66 120.088 1028.63 120.164ZM1028.85 119.576C1028.88 119.49 1028.91 119.404 1028.94 119.317C1028.91 119.404 1028.88 119.49 1028.85 119.576ZM1029.06 118.96C1029.11 118.818 1029.16 118.675 1029.21 118.531C1029.16 118.675 1029.11 118.818 1029.06 118.96ZM1029.25 118.377C1029.29 118.272 1029.32 118.166 1029.35 118.061C1029.32 118.166 1029.29 118.272 1029.25 118.377ZM1029.47 117.678C1029.49 117.595 1029.52 117.511 1029.54 117.428C1029.52 117.511 1029.49 117.595 1029.47 117.678ZM1029.64 117.066C1029.67 116.965 1029.69 116.864 1029.72 116.763C1029.69 116.864 1029.67 116.965 1029.64 117.066ZM1029.81 116.436C1029.84 116.318 1029.87 116.2 1029.89 116.082C1029.87 116.2 1029.84 116.318 1029.81 116.436ZM1029.97 115.752C1030 115.654 1030.02 115.556 1030.04 115.458C1030.02 115.556 1030 115.654 1029.97 115.752ZM1030.12 115.106C1030.15 114.967 1030.18 114.828 1030.21 114.688C1030.18 114.828 1030.15 114.967 1030.12 115.106ZM1030.26 114.434C1030.28 114.294 1030.31 114.153 1030.34 114.012C1030.31 114.153 1030.28 114.294 1030.26 114.434ZM1030.38 113.791C1030.4 113.644 1030.43 113.496 1030.46 113.348C1030.43 113.496 1030.4 113.644 1030.38 113.791ZM1030.5 113.099C1030.52 112.944 1030.55 112.788 1030.57 112.632C1030.55 112.788 1030.52 112.944 1030.5 113.099ZM1030.6 112.393C1030.63 112.238 1030.65 112.083 1030.67 111.927C1030.65 112.083 1030.63 112.238 1030.6 112.393ZM1030.71 111.63C1030.73 111.491 1030.74 111.352 1030.76 111.212C1030.74 111.352 1030.73 111.491 1030.71 111.63ZM1030.79 110.924C1030.81 110.795 1030.82 110.667 1030.83 110.537C1030.82 110.667 1030.81 110.795 1030.79 110.924ZM1030.94 109.333C1030.95 109.225 1030.96 109.116 1030.97 109.007C1030.96 109.116 1030.95 109.225 1030.94 109.333ZM1031.04 107.843C1031.04 107.727 1031.05 107.611 1031.05 107.494C1031.05 107.611 1031.04 107.727 1031.04 107.843ZM1025.43 83.7373C1025.67 84.0802 1025.9 84.4295 1026.12 84.7852C1025.9 84.4295 1025.67 84.0802 1025.43 83.7373ZM1019.66 77.2646C1020.3 77.7992 1020.91 78.3572 1021.5 78.9385C1020.91 78.3572 1020.3 77.7992 1019.66 77.2646ZM1012 72.5107C1012.41 72.6963 1012.81 72.8877 1013.21 73.085C1012.81 72.8877 1012.41 72.6963 1012 72.5107ZM1007.5 70.7471C1008.16 70.9759 1008.82 71.2163 1009.46 71.4688L1008.82 71.2197C1008.38 71.0566 1007.94 70.8996 1007.5 70.7471ZM998.087 68.4385C1000.94 68.9014 1003.63 69.5236 1006.14 70.3047C1003.63 69.5236 1000.94 68.9014 998.087 68.4385ZM994.087 67.9062H994.088H994.087ZM991.586 67.6816V67.6807V67.6816ZM986.355 67.4443C986.655 67.4496 986.953 67.456 987.249 67.4639C986.657 67.4481 986.059 67.4379 985.455 67.4326L986.355 67.4443ZM1069.47 16.4053C1068.46 15.8309 1067.42 15.271 1066.38 14.7256C1067.42 15.271 1068.46 15.8309 1069.47 16.4053ZM757.504 299.058C757.689 299.136 757.875 299.215 758.061 299.292C757.875 299.215 757.689 299.136 757.504 299.058ZM299.987 297.886C300.129 297.949 300.27 298.013 300.412 298.076C300.27 298.013 300.129 297.949 299.987 297.886ZM484.76 255.079C484.676 255.218 484.591 255.356 484.507 255.494C484.591 255.356 484.676 255.218 484.76 255.079ZM702.886 250.602C702.965 250.752 703.044 250.901 703.124 251.051C703.044 250.901 702.965 250.752 702.886 250.602ZM703.284 251.352C703.409 251.583 703.534 251.814 703.66 252.045C703.534 251.814 703.409 251.583 703.284 251.352ZM248.06 250.602C248.138 250.752 248.218 250.901 248.298 251.051C248.218 250.901 248.138 250.752 248.06 250.602ZM247.174 248.875C247.296 249.12 247.42 249.364 247.545 249.608C247.42 249.364 247.296 249.12 247.174 248.875ZM702 248.875C702.123 249.12 702.246 249.364 702.371 249.608C702.246 249.364 702.123 249.12 702 248.875ZM246.337 247.162C246.436 247.37 246.536 247.578 246.637 247.785C246.536 247.578 246.436 247.37 246.337 247.162ZM245.177 244.637C245.265 244.836 245.354 245.034 245.443 245.232C245.354 245.034 245.265 244.836 245.177 244.637ZM699.263 242.917C699.334 243.086 699.406 243.254 699.478 243.423C699.406 243.254 699.334 243.086 699.263 242.917ZM699.585 243.677C699.69 243.92 699.795 244.163 699.901 244.405C699.795 244.163 699.69 243.92 699.585 243.677ZM489.716 245.793C489.772 245.673 489.827 245.553 489.883 245.433C489.827 245.553 489.772 245.673 489.716 245.793ZM244.437 242.917C244.507 243.086 244.58 243.254 244.651 243.423C244.58 243.254 244.507 243.086 244.437 242.917ZM490.447 244.184C490.523 244.013 490.599 243.842 490.674 243.671C490.599 243.842 490.523 244.013 490.447 244.184ZM798.646 233.651C798.785 233.723 798.925 233.794 799.064 233.864C798.925 233.794 798.785 233.723 798.646 233.651ZM693.451 224.317C693.507 224.575 693.563 224.833 693.62 225.09C693.563 224.833 693.507 224.575 693.451 224.317ZM238.233 222.419C238.28 222.656 238.327 222.892 238.375 223.128C238.327 222.892 238.28 222.656 238.233 222.419ZM692.685 220.426C692.73 220.677 692.775 220.927 692.821 221.177C692.775 220.927 692.73 220.677 692.685 220.426ZM692.835 221.254C692.893 221.563 692.952 221.87 693.012 222.178C692.952 221.87 692.893 221.563 692.835 221.254ZM237.858 220.426C237.903 220.677 237.949 220.927 237.995 221.177C237.949 220.927 237.903 220.677 237.858 220.426ZM692.343 218.417C692.385 218.678 692.427 218.938 692.471 219.197C692.427 218.938 692.385 218.678 692.343 218.417ZM497.768 220.045C497.806 219.828 497.844 219.61 497.882 219.393C497.844 219.61 497.806 219.828 497.768 220.045ZM498.394 216.165C498.437 215.863 498.48 215.561 498.521 215.258C498.48 215.561 498.437 215.863 498.394 216.165ZM691.666 213.614C691.688 213.795 691.71 213.976 691.732 214.156C691.71 213.976 691.688 213.795 691.666 213.614ZM323.455 212.272C323.53 212.435 323.605 212.597 323.682 212.759C323.605 212.597 323.53 212.435 323.455 212.272ZM411.578 213.442C411.666 213.264 411.753 213.085 411.839 212.905C411.753 213.085 411.666 213.264 411.578 213.442ZM778.281 212.272C778.356 212.435 778.431 212.597 778.508 212.759C778.431 212.597 778.356 212.435 778.281 212.272ZM866.404 213.442C866.493 213.264 866.579 213.085 866.665 212.905C866.579 213.085 866.493 213.264 866.404 213.442ZM235.903 199.53C235.908 199.869 235.914 200.206 235.922 200.543C235.914 200.206 235.908 199.869 235.903 199.53ZM416.178 198.344C416.208 198.127 416.238 197.909 416.266 197.69C416.238 197.909 416.208 198.127 416.178 198.344ZM416.3 197.413C416.322 197.235 416.345 197.057 416.365 196.878C416.345 197.057 416.322 197.235 416.3 197.413ZM416.595 194.348C416.613 194.086 416.63 193.824 416.645 193.561C416.63 193.824 416.613 194.086 416.595 194.348ZM318.905 192.701C318.91 192.825 318.917 192.949 318.923 193.073C318.917 192.949 318.91 192.825 318.905 192.701ZM318.905 192.701C318.896 192.469 318.888 192.236 318.881 192.002C318.888 192.236 318.896 192.469 318.905 192.701ZM871.496 193.073C871.502 192.949 871.508 192.825 871.513 192.701C871.508 192.825 871.502 192.949 871.496 193.073ZM1021.68 130.677C1021.8 130.563 1021.91 130.449 1022.03 130.334C1021.91 130.449 1021.8 130.563 1021.68 130.677ZM1030.87 110.135C1030.89 110.005 1030.9 109.874 1030.91 109.743C1030.9 109.874 1030.89 110.005 1030.87 110.135ZM1030.99 108.639C1031 108.512 1031.01 108.385 1031.01 108.257C1031.01 108.385 1031 108.512 1030.99 108.639ZM1070.51 16.999C1070.2 16.8153 1069.88 16.634 1069.56 16.4531C1069.88 16.634 1070.2 16.8153 1070.51 16.999Z" fill="url(#paint0_linear_19086_307)"/>
<defs>
<linearGradient id="paint0_linear_19086_307" x1="1" y1="156" x2="1321" y2="156" gradientUnits="userSpaceOnUse">
<stop stop-color="#FF7023"/>
<stop offset="0.528846" stop-color="#EC5402"/>
<stop offset="1" stop-color="white"/>
</linearGradient>
</defs>
</svg>
