<svg width="116" height="288" viewBox="0 0 116 288" fill="none" xmlns="http://www.w3.org/2000/svg">
<path d="M93 223.5L23.1818 223.5L23.1818 193.227C23.1818 187.909 23.8977 183.443 25.3295 179.83C26.7614 176.193 28.7841 173.455 31.3977 171.614C34.0114 169.75 37.0909 168.818 40.6364 168.818C43.2045 168.818 45.5455 169.386 47.6591 170.523C49.7727 171.636 51.5455 173.205 52.9773 175.227C54.3864 177.25 55.3636 179.614 55.9091 182.318L56.5909 182.318C56.7045 179.318 57.4659 176.591 58.875 174.136C60.2614 171.682 62.1818 169.727 64.6364 168.273C67.0682 166.818 69.9318 166.091 73.2273 166.091C77.0455 166.091 80.4432 167.091 83.4205 169.091C86.3977 171.068 88.7386 173.886 90.4432 177.545C92.1477 181.205 93 185.568 93 190.636L93 223.5ZM77.8636 204.545L77.8636 195.682C77.8636 192.5 77.2727 190.114 76.0909 188.523C74.8864 186.932 73.1136 186.136 70.7727 186.136C69.1364 186.136 67.75 186.511 66.6136 187.261C65.4773 188.011 64.6136 189.08 64.0227 190.466C63.4318 191.83 63.1364 193.477 63.1364 195.409L63.1364 204.545L77.8636 204.545ZM51.4091 204.545L51.4091 196.773C51.4091 195.114 51.1477 193.648 50.625 192.375C50.1023 191.102 49.3523 190.114 48.375 189.409C47.375 188.682 46.1591 188.318 44.7273 188.318C42.5682 188.318 40.9205 189.091 39.7841 190.636C38.625 192.182 38.0455 194.136 38.0455 196.5L38.0455 204.545L51.4091 204.545ZM93 153.375L23.1818 153.375L23.1818 134.42L77.7273 134.42L77.7273 106.193L93 106.193L93 153.375ZM23.1818 73.5767L93 73.5767L93 92.5313L23.1818 92.5313L23.1818 73.5767ZM93 58.5938L23.1818 58.5938L23.1818 28.4574C23.1818 23.2756 24.2045 18.7415 26.25 14.8551C28.2955 10.9687 31.1705 7.94602 34.875 5.78693C38.5795 3.62784 42.9091 2.5483 47.8636 2.5483C52.8636 2.5483 57.1932 3.66193 60.8523 5.8892C64.5114 8.09375 67.3295 11.196 69.3068 15.196C71.2841 19.1733 72.2727 23.821 72.2727 29.1392L72.2727 47.1392L57.5455 47.1392L57.5455 32.9574C57.5455 30.7301 57.1591 28.8324 56.3864 27.2642C55.5909 25.6733 54.4659 24.4574 53.0114 23.6165C51.5568 22.7528 49.8409 22.321 47.8636 22.321C45.8636 22.321 44.1591 22.7528 42.75 23.6165C41.3182 24.4574 40.2273 25.6733 39.4773 27.2642C38.7045 28.8324 38.3182 30.7301 38.3182 32.9574L38.3182 39.6392L93 39.6392L93 58.5938Z" fill="#EC5401"/>
<path d="M73.6133 287.648L42.6943 287.648C32.0219 287.648 23.3701 278.997 23.3701 268.324L23.3701 261.297C23.3704 247.52 34.5393 236.352 48.3164 236.352L67.9922 236.352C81.7691 236.352 92.9373 247.52 92.9375 261.297L92.9375 268.324C92.9375 278.997 84.2858 287.648 73.6133 287.648Z" stroke="#EC5401" stroke-width="0.702703"/>
<path d="M89.7754 266.919C89.7754 276.621 81.9101 284.486 72.2078 284.486L44.0997 284.486C34.3974 284.486 26.5321 276.621 26.5321 266.919L26.5321 262C26.5321 249.581 36.5997 239.513 49.0186 239.513L67.2889 239.513C79.7079 239.513 89.7754 249.581 89.7754 262L89.7754 266.919Z" fill="white"/>
<circle cx="45.8565" cy="258.136" r="8.08108" fill="#EC5401"/>
<circle cx="70.4502" cy="258.136" r="8.08108" fill="#EC5401"/>
<path d="M69.3966 270.432C67.8769 275.322 63.4186 278.864 58.1534 278.864C52.8882 278.864 48.4299 275.322 46.9102 270.432H69.3966Z" fill="#EC5401"/>
</svg>
