<svg width="240" height="79" viewBox="0 0 240 79" fill="none" xmlns="http://www.w3.org/2000/svg">
<mask id="path-1-outside-1_19086_323" maskUnits="userSpaceOnUse" x="107" y="9" width="130" height="46" fill="black">
<rect fill="white" x="107" y="9" width="130" height="46"/>
<path d="M110.517 52V12.9417H127.453C130.428 12.9417 132.926 13.3422 134.948 14.1432C136.982 14.9442 138.514 16.0758 139.544 17.5379C140.587 19.0001 141.108 20.7229 141.108 22.7063C141.108 24.143 140.79 25.4526 140.154 26.635C139.531 27.8174 138.654 28.8091 137.523 29.6101C136.391 30.3984 135.069 30.9451 133.556 31.2503V31.6317C135.234 31.6953 136.76 32.1212 138.133 32.9095C139.506 33.6851 140.599 34.7594 141.413 36.1326C142.227 37.493 142.634 39.095 142.634 40.9386C142.634 43.0746 142.074 44.9754 140.955 46.6409C139.849 48.3065 138.273 49.6161 136.226 50.5696C134.179 51.5232 131.738 52 128.902 52H110.517ZM121.121 43.5323H126.08C127.86 43.5323 129.195 43.2017 130.085 42.5406C130.975 41.8667 131.42 40.875 131.42 39.5654C131.42 38.65 131.21 37.8744 130.79 37.2387C130.371 36.603 129.773 36.1199 128.998 35.7893C128.235 35.4587 127.313 35.2934 126.232 35.2934H121.121V43.5323ZM121.121 28.7329H125.469C126.398 28.7329 127.218 28.5866 127.93 28.2942C128.642 28.0018 129.195 27.5822 129.589 27.0355C129.996 26.4761 130.199 25.7959 130.199 24.9949C130.199 23.787 129.767 22.8652 128.902 22.2295C128.038 21.5811 126.944 21.2569 125.622 21.2569H121.121V28.7329ZM149.391 52V12.9417H159.994V43.456H175.786V52H149.391ZM193.676 12.9417V52H183.072V12.9417H193.676ZM201.701 52V12.9417H218.56C221.459 12.9417 223.995 13.5139 226.17 14.6582C228.344 15.8024 230.035 17.4108 231.243 19.4832C232.45 21.5557 233.054 23.9777 233.054 26.7494C233.054 29.5466 232.431 31.9686 231.185 34.0156C229.952 36.0626 228.217 37.6392 225.979 38.7454C223.754 39.8515 221.154 40.4046 218.179 40.4046H208.109V32.1657H216.043C217.289 32.1657 218.35 31.9496 219.228 31.5173C220.118 31.0723 220.798 30.4429 221.268 29.6292C221.751 28.8155 221.993 27.8556 221.993 26.7494C221.993 25.6306 221.751 24.677 221.268 23.8887C220.798 23.0877 220.118 22.4774 219.228 22.0579C218.35 21.6256 217.289 21.4094 216.043 21.4094H212.305V52H201.701Z"/>
</mask>
<path d="M110.517 52V12.9417H127.453C130.428 12.9417 132.926 13.3422 134.948 14.1432C136.982 14.9442 138.514 16.0758 139.544 17.5379C140.587 19.0001 141.108 20.7229 141.108 22.7063C141.108 24.143 140.79 25.4526 140.154 26.635C139.531 27.8174 138.654 28.8091 137.523 29.6101C136.391 30.3984 135.069 30.9451 133.556 31.2503V31.6317C135.234 31.6953 136.76 32.1212 138.133 32.9095C139.506 33.6851 140.599 34.7594 141.413 36.1326C142.227 37.493 142.634 39.095 142.634 40.9386C142.634 43.0746 142.074 44.9754 140.955 46.6409C139.849 48.3065 138.273 49.6161 136.226 50.5696C134.179 51.5232 131.738 52 128.902 52H110.517ZM121.121 43.5323H126.08C127.86 43.5323 129.195 43.2017 130.085 42.5406C130.975 41.8667 131.42 40.875 131.42 39.5654C131.42 38.65 131.21 37.8744 130.79 37.2387C130.371 36.603 129.773 36.1199 128.998 35.7893C128.235 35.4587 127.313 35.2934 126.232 35.2934H121.121V43.5323ZM121.121 28.7329H125.469C126.398 28.7329 127.218 28.5866 127.93 28.2942C128.642 28.0018 129.195 27.5822 129.589 27.0355C129.996 26.4761 130.199 25.7959 130.199 24.9949C130.199 23.787 129.767 22.8652 128.902 22.2295C128.038 21.5811 126.944 21.2569 125.622 21.2569H121.121V28.7329ZM149.391 52V12.9417H159.994V43.456H175.786V52H149.391ZM193.676 12.9417V52H183.072V12.9417H193.676ZM201.701 52V12.9417H218.56C221.459 12.9417 223.995 13.5139 226.17 14.6582C228.344 15.8024 230.035 17.4108 231.243 19.4832C232.45 21.5557 233.054 23.9777 233.054 26.7494C233.054 29.5466 232.431 31.9686 231.185 34.0156C229.952 36.0626 228.217 37.6392 225.979 38.7454C223.754 39.8515 221.154 40.4046 218.179 40.4046H208.109V32.1657H216.043C217.289 32.1657 218.35 31.9496 219.228 31.5173C220.118 31.0723 220.798 30.4429 221.268 29.6292C221.751 28.8155 221.993 27.8556 221.993 26.7494C221.993 25.6306 221.751 24.677 221.268 23.8887C220.798 23.0877 220.118 22.4774 219.228 22.0579C218.35 21.6256 217.289 21.4094 216.043 21.4094H212.305V52H201.701Z" fill="white"/>
<path d="M110.517 52H107.517C107.517 53.6569 108.861 55 110.517 55V52ZM110.517 12.9417V9.94172C108.861 9.94172 107.517 11.2849 107.517 12.9417H110.517ZM134.948 14.1432L133.843 16.9323L133.849 16.9346L134.948 14.1432ZM139.544 17.5379L137.091 19.2655C137.095 19.2702 137.098 19.2749 137.102 19.2796L139.544 17.5379ZM140.154 26.635L137.512 25.2144C137.508 25.2218 137.504 25.2292 137.5 25.2366L140.154 26.635ZM137.523 29.6101L139.237 32.0717C139.244 32.0674 139.25 32.0631 139.256 32.0588L137.523 29.6101ZM133.556 31.2503L132.963 28.3095C131.563 28.5919 130.556 29.8221 130.556 31.2503H133.556ZM133.556 31.6317H130.556C130.556 33.2444 131.831 34.5685 133.442 34.6296L133.556 31.6317ZM138.133 32.9095L136.639 35.5113C136.645 35.5147 136.651 35.5182 136.657 35.5216L138.133 32.9095ZM141.413 36.1326L138.832 37.662L138.839 37.6725L141.413 36.1326ZM140.955 46.6409L138.465 44.9681C138.462 44.9724 138.459 44.9768 138.456 44.9812L140.955 46.6409ZM136.226 50.5696L134.959 47.8502V47.8502L136.226 50.5696ZM121.121 43.5323H118.121C118.121 45.1891 119.464 46.5323 121.121 46.5323V43.5323ZM130.085 42.5406L131.874 44.9488C131.881 44.9434 131.888 44.9379 131.896 44.9324L130.085 42.5406ZM128.998 35.7893L127.805 38.542C127.81 38.5443 127.816 38.5467 127.821 38.5491L128.998 35.7893ZM121.121 35.2934V32.2934C119.464 32.2934 118.121 33.6366 118.121 35.2934H121.121ZM121.121 28.7329H118.121C118.121 30.3897 119.464 31.7329 121.121 31.7329V28.7329ZM127.93 28.2942L129.069 31.0693H129.069L127.93 28.2942ZM129.589 27.0355L127.163 25.271L127.155 25.2811L129.589 27.0355ZM128.902 22.2295L127.102 24.6295C127.11 24.6352 127.117 24.6408 127.125 24.6465L128.902 22.2295ZM121.121 21.2569V18.2569C119.464 18.2569 118.121 19.6 118.121 21.2569H121.121ZM110.517 52H113.517V12.9417H110.517H107.517V52H110.517ZM110.517 12.9417V15.9417H127.453V12.9417V9.94172H110.517V12.9417ZM127.453 12.9417V15.9417C130.18 15.9417 132.277 16.3117 133.843 16.9323L134.948 14.1432L136.053 11.3542C133.576 10.3728 130.676 9.94172 127.453 9.94172V12.9417ZM134.948 14.1432L133.849 16.9346C135.46 17.569 136.468 18.3798 137.091 19.2655L139.544 17.5379L141.997 15.8104C140.561 13.7718 138.504 12.3194 136.047 11.3518L134.948 14.1432ZM139.544 17.5379L137.102 19.2796C137.744 20.1804 138.108 21.2789 138.108 22.7063H141.108H144.108C144.108 20.1668 143.43 17.8198 141.987 15.7962L139.544 17.5379ZM141.108 22.7063H138.108C138.108 23.683 137.897 24.4992 137.512 25.2144L140.154 26.635L142.797 28.0556C143.684 26.406 144.108 24.603 144.108 22.7063H141.108ZM140.154 26.635L137.5 25.2366C137.106 25.9856 136.55 26.6228 135.789 27.1615L137.523 29.6101L139.256 32.0588C140.758 30.9955 141.957 29.6493 142.809 28.0334L140.154 26.635ZM137.523 29.6101L135.808 27.1486C135.051 27.6755 134.121 28.0759 132.963 28.3095L133.556 31.2503L134.149 34.1911C136.016 33.8144 137.731 33.1214 139.237 32.0717L137.523 29.6101ZM133.556 31.2503H130.556V31.6317H133.556H136.556V31.2503H133.556ZM133.556 31.6317L133.442 34.6296C134.665 34.6759 135.713 34.9794 136.639 35.5113L138.133 32.9095L139.626 30.3077C137.807 29.263 135.802 28.7147 133.669 28.6339L133.556 31.6317ZM138.133 32.9095L136.657 35.5216C137.568 36.0359 138.283 36.7345 138.832 37.662L141.413 36.1326L143.994 34.6032C142.916 32.7844 141.444 31.3342 139.608 30.2974L138.133 32.9095ZM141.413 36.1326L138.839 37.6725C139.331 38.4962 139.634 39.5477 139.634 40.9386H142.634H145.634C145.634 38.6423 145.122 36.4898 143.988 34.5926L141.413 36.1326ZM142.634 40.9386H139.634C139.634 42.5192 139.23 43.8297 138.465 44.9681L140.955 46.6409L143.446 48.3138C144.919 46.121 145.634 43.63 145.634 40.9386H142.634ZM140.955 46.6409L138.456 44.9812C137.694 46.1295 136.572 47.0989 134.959 47.8502L136.226 50.5696L137.493 53.2891C139.974 52.1333 142.005 50.4835 143.455 48.3006L140.955 46.6409ZM136.226 50.5696L134.959 47.8502C133.397 48.578 131.408 49 128.902 49V52V55C132.067 55 134.961 54.4684 137.493 53.2891L136.226 50.5696ZM128.902 52V49H110.517V52V55H128.902V52ZM121.121 43.5323V46.5323H126.08V43.5323V40.5323H121.121V43.5323ZM126.08 43.5323V46.5323C128.144 46.5323 130.237 46.1644 131.874 44.9488L130.085 42.5406L128.296 40.1323C128.152 40.239 127.576 40.5323 126.08 40.5323V43.5323ZM130.085 42.5406L131.896 44.9324C133.67 43.5889 134.42 41.6307 134.42 39.5654H131.42H128.42C128.42 39.882 128.366 40.0244 128.349 40.0632C128.338 40.0869 128.329 40.1073 128.274 40.1488L130.085 42.5406ZM131.42 39.5654H134.42C134.42 38.1826 134.098 36.8038 133.294 35.5862L130.79 37.2387L128.287 38.8912C128.322 38.9451 128.42 39.1174 128.42 39.5654H131.42ZM130.79 37.2387L133.294 35.5862C132.516 34.4073 131.431 33.5653 130.174 33.0295L128.998 35.7893L127.821 38.5491C128.115 38.6744 128.225 38.7987 128.287 38.8912L130.79 37.2387ZM128.998 35.7893L130.19 33.0366C128.956 32.5019 127.606 32.2934 126.232 32.2934V35.2934V38.2934C127.02 38.2934 127.513 38.4156 127.805 38.542L128.998 35.7893ZM126.232 35.2934V32.2934H121.121V35.2934V38.2934H126.232V35.2934ZM121.121 35.2934H118.121V43.5323H121.121H124.121V35.2934H121.121ZM121.121 28.7329V31.7329H125.469V28.7329V25.7329H121.121V28.7329ZM125.469 28.7329V31.7329C126.71 31.7329 127.93 31.5374 129.069 31.0693L127.93 28.2942L126.79 25.5192C126.506 25.6359 126.085 25.7329 125.469 25.7329V28.7329ZM127.93 28.2942L129.069 31.0693C130.224 30.595 131.256 29.8527 132.022 28.7899L129.589 27.0355L127.155 25.2811C127.133 25.3117 127.059 25.4086 126.79 25.5192L127.93 28.2942ZM129.589 27.0355L132.015 28.8C132.852 27.6498 133.199 26.3261 133.199 24.9949H130.199H127.199C127.199 25.141 127.181 25.2181 127.172 25.2462C127.168 25.2607 127.165 25.2672 127.164 25.2682C127.164 25.2692 127.164 25.2696 127.163 25.271L129.589 27.0355ZM130.199 24.9949H133.199C133.199 22.9706 132.418 21.0906 130.679 19.8126L128.902 22.2295L127.125 24.6465C127.157 24.67 127.166 24.6821 127.164 24.6796C127.164 24.6789 127.162 24.6771 127.161 24.6745C127.159 24.6719 127.158 24.6705 127.159 24.6714C127.159 24.6719 127.168 24.6913 127.178 24.7394C127.188 24.7888 127.199 24.8714 127.199 24.9949H130.199ZM128.902 22.2295L130.702 19.8295C129.211 18.7111 127.445 18.2569 125.622 18.2569V21.2569V24.2569C126.443 24.2569 126.864 24.451 127.102 24.6295L128.902 22.2295ZM125.622 21.2569V18.2569H121.121V21.2569V24.2569H125.622V21.2569ZM121.121 21.2569H118.121V28.7329H121.121H124.121V21.2569H121.121ZM149.391 52H146.391C146.391 53.6569 147.734 55 149.391 55V52ZM149.391 12.9417V9.94172C147.734 9.94172 146.391 11.2849 146.391 12.9417H149.391ZM159.994 12.9417H162.994C162.994 11.2849 161.651 9.94172 159.994 9.94172V12.9417ZM159.994 43.456H156.994C156.994 45.1129 158.338 46.456 159.994 46.456V43.456ZM175.786 43.456H178.786C178.786 41.7991 177.442 40.456 175.786 40.456V43.456ZM175.786 52V55C177.442 55 178.786 53.6569 178.786 52H175.786ZM149.391 52H152.391V12.9417H149.391H146.391V52H149.391ZM149.391 12.9417V15.9417H159.994V12.9417V9.94172H149.391V12.9417ZM159.994 12.9417H156.994V43.456H159.994H162.994V12.9417H159.994ZM159.994 43.456V46.456H175.786V43.456V40.456H159.994V43.456ZM175.786 43.456H172.786V52H175.786H178.786V43.456H175.786ZM175.786 52V49H149.391V52V55H175.786V52ZM193.676 12.9417H196.676C196.676 11.2849 195.332 9.94172 193.676 9.94172V12.9417ZM193.676 52V55C195.332 55 196.676 53.6569 196.676 52H193.676ZM183.072 52H180.072C180.072 53.6569 181.415 55 183.072 55V52ZM183.072 12.9417V9.94172C181.415 9.94172 180.072 11.2849 180.072 12.9417H183.072ZM193.676 12.9417H190.676V52H193.676H196.676V12.9417H193.676ZM193.676 52V49H183.072V52V55H193.676V52ZM183.072 52H186.072V12.9417H183.072H180.072V52H183.072ZM183.072 12.9417V15.9417H193.676V12.9417V9.94172H183.072V12.9417ZM201.701 52H198.701C198.701 53.6569 200.044 55 201.701 55V52ZM201.701 12.9417V9.94172C200.044 9.94172 198.701 11.2849 198.701 12.9417H201.701ZM226.17 14.6582L224.772 17.3129H224.772L226.17 14.6582ZM231.243 19.4832L233.835 17.9726V17.9726L231.243 19.4832ZM231.185 34.0156L228.623 32.4558L228.616 32.4675L231.185 34.0156ZM225.979 38.7454L224.649 36.056L224.643 36.059L225.979 38.7454ZM208.109 40.4046H205.109C205.109 42.0614 206.452 43.4046 208.109 43.4046V40.4046ZM208.109 32.1657V29.1657C206.452 29.1657 205.109 30.5089 205.109 32.1657H208.109ZM219.228 31.5173L220.554 34.2083C220.559 34.2058 220.564 34.2032 220.569 34.2006L219.228 31.5173ZM221.268 29.6292L218.689 28.0976C218.683 28.1076 218.677 28.1176 218.671 28.1277L221.268 29.6292ZM221.268 23.8887L218.681 25.408C218.691 25.4242 218.701 25.4404 218.71 25.4564L221.268 23.8887ZM219.228 22.0579L217.902 24.7489C217.917 24.7565 217.933 24.7641 217.948 24.7714L219.228 22.0579ZM212.305 21.4094V18.4094C210.648 18.4094 209.305 19.7526 209.305 21.4094H212.305ZM212.305 52V55C213.962 55 215.305 53.6569 215.305 52H212.305ZM201.701 52H204.701V12.9417H201.701H198.701V52H201.701ZM201.701 12.9417V15.9417H218.56V12.9417V9.94172H201.701V12.9417ZM218.56 12.9417V15.9417C221.06 15.9417 223.1 16.4329 224.772 17.3129L226.17 14.6582L227.567 12.0034C224.891 10.5949 221.858 9.94172 218.56 9.94172V12.9417ZM226.17 14.6582L224.772 17.3129C226.462 18.202 227.733 19.4195 228.651 20.9938L231.243 19.4832L233.835 17.9726C232.336 15.4021 230.226 13.4029 227.567 12.0034L226.17 14.6582ZM231.243 19.4832L228.651 20.9938C229.552 22.5405 230.054 24.4249 230.054 26.7494H233.054H236.054C236.054 23.5306 235.349 20.5708 233.835 17.9726L231.243 19.4832ZM233.054 26.7494H230.054C230.054 29.0897 229.538 30.9526 228.623 32.4558L231.185 34.0156L233.748 35.5755C235.325 32.9847 236.054 30.0035 236.054 26.7494H233.054ZM231.185 34.0156L228.616 32.4675C227.692 34.0009 226.397 35.192 224.649 36.056L225.979 38.7454L227.308 41.4347C230.036 40.0864 232.212 38.1244 233.755 35.5638L231.185 34.0156ZM225.979 38.7454L224.643 36.059C222.907 36.922 220.781 37.4046 218.179 37.4046V40.4046V43.4046C221.527 43.4046 224.6 42.781 227.314 41.4317L225.979 38.7454ZM218.179 40.4046V37.4046H208.109V40.4046V43.4046H218.179V40.4046ZM208.109 40.4046H211.109V32.1657H208.109H205.109V40.4046H208.109ZM208.109 32.1657V35.1657H216.043V32.1657V29.1657H208.109V32.1657ZM216.043 32.1657V35.1657C217.626 35.1657 219.167 34.8917 220.554 34.2083L219.228 31.5173L217.902 28.8263C217.534 29.0074 216.951 29.1657 216.043 29.1657V32.1657ZM219.228 31.5173L220.569 34.2006C221.952 33.5092 223.084 32.4832 223.865 31.1307L221.268 29.6292L218.671 28.1277C218.512 28.4027 218.283 28.6354 217.886 28.834L219.228 31.5173ZM221.268 29.6292L223.848 31.1608C224.65 29.8104 224.993 28.3025 224.993 26.7494H221.993H218.993C218.993 27.4086 218.853 27.8206 218.689 28.0976L221.268 29.6292ZM221.993 26.7494H224.993C224.993 25.194 224.654 23.6716 223.826 22.321L221.268 23.8887L218.71 25.4564C218.849 25.6824 218.993 26.0672 218.993 26.7494H221.993ZM221.268 23.8887L223.855 22.3695C223.06 21.0162 221.909 20.0052 220.507 19.3443L219.228 22.0579L217.948 24.7714C218.326 24.9496 218.535 25.1592 218.681 25.408L221.268 23.8887ZM219.228 22.0579L220.554 19.3668C219.167 18.6834 217.626 18.4094 216.043 18.4094V21.4094V24.4094C216.951 24.4094 217.534 24.5677 217.902 24.7489L219.228 22.0579ZM216.043 21.4094V18.4094H212.305V21.4094V24.4094H216.043V21.4094ZM212.305 21.4094H209.305V52H212.305H215.305V21.4094H212.305ZM212.305 52V49H201.701V52V55H212.305V52Z" fill="#EC5401" mask="url(#path-1-outside-1_19086_323)"/>
<path d="M111.199 74V64.0964H114.662C115.352 64.0964 115.921 64.2157 116.369 64.4542C116.817 64.6896 117.15 65.0071 117.37 65.4069C117.589 65.8034 117.699 66.2434 117.699 66.727C117.699 67.1526 117.623 67.504 117.471 67.7812C117.323 68.0585 117.126 68.2777 116.881 68.4389C116.639 68.6001 116.377 68.7194 116.093 68.7967V68.8934C116.396 68.9128 116.701 69.0192 117.007 69.2126C117.313 69.406 117.57 69.6833 117.776 70.0444C117.982 70.4054 118.085 70.8471 118.085 71.3693C118.085 71.8658 117.973 72.3123 117.747 72.7089C117.521 73.1054 117.165 73.4197 116.678 73.6518C116.191 73.8839 115.558 74 114.778 74H111.199ZM112.399 72.9361H114.778C115.561 72.9361 116.117 72.7846 116.446 72.4816C116.778 72.1753 116.944 71.8046 116.944 71.3693C116.944 71.0341 116.859 70.7246 116.688 70.4409C116.517 70.154 116.274 69.9251 115.958 69.7542C115.642 69.5801 115.268 69.4931 114.836 69.4931H112.399V72.9361ZM112.399 68.4486H114.623C114.984 68.4486 115.31 68.3776 115.6 68.2358C115.893 68.0939 116.125 67.8941 116.296 67.6361C116.47 67.3782 116.557 67.0752 116.557 66.727C116.557 66.2918 116.406 65.9227 116.103 65.6196C115.8 65.3134 115.319 65.1602 114.662 65.1602H112.399V68.4486ZM122.326 74V64.0964H123.525V72.9361H128.128V74H122.326ZM133.454 64.0964V74H132.255V64.0964H133.454ZM138.128 74V64.0964H141.475C142.252 64.0964 142.887 64.2366 143.38 64.5171C143.876 64.7943 144.244 65.1699 144.483 65.6438C144.721 66.1177 144.84 66.6464 144.84 67.2299C144.84 67.8135 144.721 68.3438 144.483 68.8209C144.247 69.298 143.883 69.6784 143.39 69.9621C142.896 70.2426 142.265 70.3829 141.494 70.3829H139.096V69.319H141.455C141.987 69.319 142.414 69.2271 142.737 69.0434C143.059 68.8596 143.293 68.6114 143.438 68.2986C143.586 67.9827 143.66 67.6265 143.66 67.2299C143.66 66.8334 143.586 66.4788 143.438 66.1661C143.293 65.8534 143.058 65.6084 142.732 65.431C142.406 65.2505 141.974 65.1602 141.436 65.1602H139.328V74H138.128ZM163.111 67.1913H161.911C161.84 66.8463 161.716 66.5433 161.539 66.2821C161.365 66.021 161.152 65.8018 160.901 65.6245C160.653 65.4439 160.377 65.3085 160.074 65.2183C159.771 65.128 159.455 65.0829 159.126 65.0829C158.526 65.0829 157.983 65.2344 157.496 65.5374C157.013 65.8405 156.628 66.287 156.341 66.8769C156.057 67.4669 155.915 68.1906 155.915 69.0482C155.915 69.9057 156.057 70.6295 156.341 71.2194C156.628 71.8094 157.013 72.2559 157.496 72.5589C157.983 72.862 158.526 73.0135 159.126 73.0135C159.455 73.0135 159.771 72.9684 160.074 72.8781C160.377 72.7878 160.653 72.654 160.901 72.4767C161.152 72.2962 161.365 72.0754 161.539 71.8142C161.716 71.5499 161.84 71.2468 161.911 70.9051H163.111C163.02 71.4113 162.856 71.8642 162.617 72.264C162.379 72.6637 162.082 73.0038 161.728 73.2843C161.373 73.5616 160.975 73.7727 160.533 73.9178C160.095 74.0629 159.626 74.1354 159.126 74.1354C158.281 74.1354 157.53 73.9291 156.873 73.5164C156.215 73.1038 155.697 72.517 155.32 71.7562C154.943 70.9954 154.755 70.0927 154.755 69.0482C154.755 68.0037 154.943 67.101 155.32 66.3402C155.697 65.5793 156.215 64.9926 156.873 64.58C157.53 64.1673 158.281 63.961 159.126 63.961C159.626 63.961 160.095 64.0335 160.533 64.1786C160.975 64.3237 161.373 64.5364 161.728 64.8169C162.082 65.0942 162.379 65.4327 162.617 65.8324C162.856 66.2289 163.02 66.6819 163.111 67.1913ZM167.318 74V64.0964H170.665C171.438 64.0964 172.073 64.2286 172.57 64.4929C173.066 64.754 173.434 65.1135 173.672 65.5713C173.911 66.0291 174.03 66.5497 174.03 67.1332C174.03 67.7167 173.911 68.2342 173.672 68.6855C173.434 69.1368 173.068 69.4915 172.575 69.7494C172.081 70.0041 171.451 70.1314 170.684 70.1314H167.976V69.0482H170.645C171.174 69.0482 171.599 68.9708 171.922 68.8161C172.247 68.6613 172.483 68.4421 172.628 68.1584C172.776 67.8715 172.85 67.5298 172.85 67.1332C172.85 66.7367 172.776 66.3901 172.628 66.0935C172.48 65.7969 172.243 65.5681 171.917 65.4069C171.591 65.2424 171.161 65.1602 170.626 65.1602H168.517V74H167.318ZM171.98 69.5511L174.417 74H173.024L170.626 69.5511H171.98ZM178.298 74V64.0964H184.275V65.1602H179.497V68.5066H183.966V69.5704H179.497V72.9361H184.353V74H178.298ZM189.113 74H187.855L191.492 64.0964H192.73L196.366 74H195.109L192.149 65.6632H192.072L189.113 74ZM189.577 70.1314H194.645V71.1953H189.577V70.1314ZM198.48 65.1602V64.0964H205.908V65.1602H202.793V74H201.594V65.1602H198.48ZM211.227 64.0964V74H210.028V64.0964H211.227ZM216.308 64.0964L219.248 72.4332H219.364L222.304 64.0964H223.561L219.925 74H218.687L215.05 64.0964H216.308ZM227.373 74V64.0964H233.35V65.1602H228.573V68.5066H233.041V69.5704H228.573V72.9361H233.428V74H227.373Z" fill="white"/>
<path d="M72 78.5L28 78.5C12.8122 78.5 0.500001 66.1878 0.500002 51L0.500003 41C0.50001 21.3939 16.3939 5.49999 36 5.49999L64 5.5C83.6061 5.5 99.5 21.3939 99.5 41L99.5 51C99.5 65.9505 87.5697 78.1146 72.71 78.4912L72 78.5Z" stroke="white"/>
<path d="M95 49.002C95 62.8091 83.8071 74.002 70 74.002L30 74.0019C16.1929 74.0019 5 62.8091 5 49.0019L5 42.0019C5 24.3288 19.3269 10.0019 37 10.0019L63 10.002C80.6731 10.002 95 24.3288 95 42.002L95 49.002Z" fill="white"/>
<circle cx="32.5" cy="36.502" r="11.5" fill="#EC5401"/>
<circle cx="67.5" cy="36.502" r="11.5" fill="#EC5401"/>
<path d="M66 54.002C63.8373 60.9613 57.4928 66.002 50 66.002C42.5072 66.002 36.1627 60.9613 34 54.002H66Z" fill="#EC5401"/>
</svg>
