<svg width="1330" height="320" viewBox="0 0 1330 320" fill="none" xmlns="http://www.w3.org/2000/svg">
<path d="M325.353 2.5V194.112C325.353 203.202 327.351 211.248 331.295 218.314L331.67 218.965C335.59 225.638 340.907 230.88 347.651 234.721H347.652C354.701 238.679 362.728 240.685 371.796 240.686C380.968 240.686 388.988 238.677 395.927 234.729C402.895 230.763 408.341 225.303 412.297 218.314C416.241 211.248 418.24 203.202 418.24 194.112V74.9824H506.206V201.294C506.206 225.045 500.531 245.732 489.088 263.251C477.771 280.629 461.979 294.042 441.796 303.499L441.787 303.504C421.602 312.86 398.251 317.5 371.796 317.5C345.145 317.5 321.694 312.861 301.507 303.504L301.497 303.499C281.315 294.042 265.523 280.629 254.206 263.252L254.201 263.245L254.196 263.237C242.958 245.72 237.387 225.038 237.387 201.294V2.5H325.353ZM237.033 2.5V74.5811H88.5293V122.287H204.536V194.368H88.5293V314.154H2.5V2.5H237.033ZM691.085 2.5V74.5273H688.585L642.736 74.5283V313.912H555.964V74.5293H418.11V2.50195H420.61L688.585 2.5H691.085ZM1327.5 2.5V74.5273H1190.22V122.191H1316.16V194.219H1190.22V241.882H1326.9V313.909H1102.25V2.5H1327.5ZM961.799 143.138H988.545C998.096 143.138 1006.1 141.962 1012.63 139.689C1019.16 137.349 1024.02 133.708 1027.37 128.815L1027.38 128.79C1030.79 123.94 1032.6 117.456 1032.6 109.131C1032.6 100.702 1030.79 94.1098 1027.37 89.1553L1027.34 89.1123C1023.99 84.019 1019.12 80.2411 1012.59 77.8115L1012.55 77.7959C1006.06 75.2473 998.076 73.9287 988.545 73.9287H961.799V143.138ZM1101.68 176.029L1101.06 176.735C1093.41 185.487 1084.1 192.655 1073.17 198.249L1101.38 250.179L1101.68 250.737V313.909H1040.16L1039.46 312.581L986.509 212.771H960.566C959.004 231.773 953.471 248.621 943.914 263.251C932.597 280.629 916.805 294.042 896.622 303.499L896.613 303.504C876.429 312.86 853.078 317.5 826.623 317.5C799.972 317.5 776.52 312.861 756.333 303.504L756.323 303.499C736.141 294.042 720.349 280.629 709.032 263.252L709.027 263.245L709.023 263.237C697.785 245.72 692.213 225.038 692.213 201.294V2.5H780.179V194.112C780.179 203.202 782.177 211.248 786.121 218.314L786.496 218.965C790.416 225.638 795.734 230.88 802.479 234.721C809.528 238.679 817.555 240.686 826.623 240.686C835.795 240.685 843.815 238.677 850.754 234.729C857.722 230.763 863.167 225.303 867.123 218.314C871.067 211.248 873.066 203.202 873.066 194.112V2.5H1008.24C1031.23 2.5 1051.46 6.69562 1068.88 15.1699C1081.68 21.4036 1092.43 29.6768 1101.1 39.9912L1101.68 40.6885V176.029Z" stroke="white" stroke-width="5"/>
</svg>
